<svg width="24" height="24" viewBox="0 0 24 24" fill="none" xmlns="http://www.w3.org/2000/svg">
<g clip-path="url(#clip0_4345_12439)">
<path d="M8 8.99999C8.552 8.99999 8.99999 8.552 8.99999 8C8.99999 7.448 8.552 7 8 7C7.448 7 7 7.448 7 8C7 8.552 7.448 8.99999 8 8.99999Z" fill="#291E5E"/>
<path d="M12 8.99999C12.552 8.99999 13 8.552 13 8C13 7.448 12.552 7 12 7C11.448 7 11 7.448 11 8C11 8.552 11.448 8.99999 12 8.99999Z" fill="#291E5E"/>
<path d="M11 11C11 11.552 10.552 12 10 12C9.448 12 9 11.552 9 11C9 10.448 9.448 10 10 10C10.552 10 11 10.448 11 11Z" fill="#291E5E"/>
<path d="M14 12C14.552 12 15 11.552 15 11C15 10.448 14.552 10 14 10C13.448 10 13 10.448 13 11C13 11.552 13.448 12 14 12Z" fill="#291E5E"/>
<path d="M19 11C19 11.552 18.552 12 18 12C17.448 12 17 11.552 17 11C17 10.448 17.448 10 18 10C18.552 10 19 10.448 19 11Z" fill="#291E5E"/>
<path d="M16 8.99999C16.552 8.99999 17 8.552 17 8C17 7.448 16.552 7 16 7C15.448 7 15 7.448 15 8C15 8.552 15.448 8.99999 16 8.99999Z" fill="#291E5E"/>
<path d="M21 8C21 8.552 20.552 8.99999 20 8.99999C19.448 8.99999 19 8.552 19 8C19 7.448 19.448 7 20 7C20.552 7 21 7.448 21 8Z" fill="#291E5E"/>
<path d="M13 14C13 13.448 12.552 13 12 13C11.448 13 11 13.448 11 14C11 14.552 11.448 15 12 15C12.552 15 13 14.552 13 14Z" fill="#291E5E"/>
<path d="M16 13C16.552 13 17 13.448 17 14C17 14.552 16.552 15 16 15C15.448 15 15 14.552 15 14C15 13.448 15.448 13 16 13Z" fill="#291E5E"/>
<path d="M3.99998 17H7.99997H8.00002H19.734C22.0903 17 24 15.0903 24 12.734V4.00004C24 3.44775 23.5523 3.00005 23 3.00005H4.72073L3.94867 0.683847C3.81253 0.275499 3.43041 6.10352e-05 2.99999 6.10352e-05H0.999996C0.447703 6.10352e-05 0 0.447764 0 1.00006C0 1.55235 0.447703 2.00005 0.999996 2.00005H2.27924L5.0513 10.3162C5.05149 10.3169 5.05179 10.3174 5.05198 10.318L6.61262 15H3.99998C1.7977 15 0 16.7977 0 19C0 21.2023 1.7977 23 3.99998 23H8.26798C8.61373 23.5977 9.25944 24 9.99996 24C10.7405 24 11.3862 23.5977 11.7319 23H20.2679C20.6137 23.5977 21.2594 24 21.9999 24C23.1049 24 23.9999 23.1049 23.9999 22C23.9999 20.895 23.1049 20 21.9999 20C21.2594 20 20.6137 20.4022 20.2679 21H11.7319C11.3862 20.4022 10.7405 20 9.99996 20C9.25944 20 8.61373 20.4022 8.26798 21H3.99998C2.90228 21 1.99999 20.0977 1.99999 19C1.99999 17.9023 2.90228 17 3.99998 17ZM8.99996 5.00004C8.99996 5.55204 9.44796 6.00004 9.99996 6.00004C10.552 6.00004 11 5.55204 11 5.00004H12.9999C12.9999 5.55204 13.4479 6.00004 13.9999 6.00004C14.5519 6.00004 14.9999 5.55204 14.9999 5.00004H16.9999C16.9999 5.55204 17.4479 6.00004 17.9999 6.00004C18.5519 6.00004 18.9999 5.55204 18.9999 5.00004H20.9999C20.9999 5.55204 21.4479 6.00004 21.9999 6.00004C22 6.00004 22 6.00004 22 6.00004V10C22 10 22 10 21.9999 10C21.4479 10 20.9999 10.448 20.9999 11C20.9999 11.552 21.4479 12 21.9999 12C22 12 22 12 22 12V12.734C22 13.7197 21.3709 14.5577 20.4923 14.8696C20.7951 14.6977 20.9999 14.3729 20.9999 14C20.9999 13.448 20.5519 13 19.9999 13C19.4479 13 18.9999 13.448 18.9999 14C18.9999 14.5154 19.3906 14.9399 19.8918 14.9939C19.8396 14.9976 19.7871 15 19.734 15H15.9999H12H8.72081L8.64264 14.7655C8.8609 14.582 8.99996 14.3073 8.99996 14C8.99996 13.4666 8.58131 13.0316 8.05509 13.0028L5.70613 5.95594C5.79905 5.98451 5.89768 6.00004 5.99998 6.00004C6.55198 6.00004 6.99997 5.55204 6.99997 5.00004H8.99996Z" fill="#291E5E"/>
</g>
<defs>
<clipPath id="clip0_4345_12439">
<rect width="24" height="24" fill="white"/>
</clipPath>
</defs>
</svg>
